<svg width="9.244720" height="7.116699" viewBox="0 0 9.24472 7.1167" fill="none" xmlns="http://www.w3.org/2000/svg" xmlns:xlink="http://www.w3.org/1999/xlink">
	<desc>
			Created with Pixso.
	</desc>
	<defs/>
	<path id="Vector" d="M0.106232 3.91467C0.0343933 3.83826 0 3.7312 0 3.66241C0 3.59363 0.0343933 3.48657 0.106232 3.41016L0.603729 2.92096C0.746643 2.77576 0.959106 2.77576 1.10275 2.92096L1.13638 2.9516L3.09277 5.05316C3.16385 5.12195 3.27084 5.12195 3.34268 5.05316L8.10681 0.108887L8.14197 0.108887C8.28564 -0.0363159 8.49731 -0.0363159 8.64023 0.108887L9.13925 0.605591C9.27988 0.743103 9.27988 0.957031 9.13925 1.10223L3.44891 7.00958C3.37631 7.07837 3.306 7.1167 3.19901 7.1167C3.09277 7.1167 3.02246 7.07837 2.94989 7.00958L0.176544 4.02179L0.106232 3.91467Z" fill="#FFFFFF" fill-opacity="1.000000" fill-rule="nonzero"/>
</svg>
