<svg width="96.000000" height="73.000000" viewBox="0 0 96 73" fill="none" xmlns="http://www.w3.org/2000/svg" xmlns:xlink="http://www.w3.org/1999/xlink">
	<desc>
			Created with Pixso.
	</desc>
	<defs/>
	<path id="Vector" d="M77.7512 22.9829C80.117 20.7891 82.0277 18.9912 82.6022 18.3784C84.8647 15.9773 85.8071 12.9016 85.2584 9.72046C84.6549 6.21143 82.2988 2.97485 79.1132 1.27295C76.3278 -0.218506 73.0196 -0.401123 69.7953 0.746826C67.4199 1.5979 65.3091 3.11108 63.6662 5.09448C62.0267 3.11108 59.9159 1.5979 57.5372 0.746826C54.3129 -0.404297 51.0046 -0.22168 48.2193 1.27295C46.7249 2.06812 45.4404 3.22559 44.4043 4.56836L42.81 7.2666C42.4775 8.05566 42.2225 8.87573 42.0773 9.71436C41.5254 12.8953 42.4678 15.9741 44.7336 18.3755C46.5668 20.3218 61.904 34.2803 62.556 34.8713C62.564 34.8792 62.5753 34.8813 62.5866 34.8838C62.5979 34.886 62.6092 34.8884 62.6173 34.8962C62.9207 35.1499 63.2918 35.2983 63.6695 35.2983C64.0503 35.2983 64.4183 35.1499 64.7216 34.8962C64.7297 34.8884 64.741 34.886 64.7523 34.8838C64.7636 34.8813 64.7749 34.8792 64.783 34.8713C65.1638 34.5249 70.5441 29.6265 75.3273 25.2202L77.7512 22.9829ZM47.2543 6.14038C47.9772 5.27075 48.8228 4.50659 49.7943 3.98657C51.747 2.94385 54.0966 2.82642 56.4075 3.65552C58.8153 4.51587 60.8938 6.27954 62.2526 8.62207C62.2645 8.6416 62.2801 8.65698 62.2955 8.67212C62.3091 8.68555 62.3226 8.69873 62.3333 8.71484C62.3914 8.79834 62.4624 8.86963 62.5366 8.94067C62.6173 9.01807 62.6948 9.08936 62.7884 9.14795C62.8043 9.15771 62.817 9.17017 62.8297 9.18237C62.8452 9.19727 62.8606 9.21216 62.882 9.22241C62.9144 9.24072 62.9491 9.24805 62.984 9.25562C63.0082 9.26074 63.0325 9.26611 63.0562 9.2749C63.1563 9.31519 63.2531 9.34912 63.3596 9.36768C63.4629 9.38623 63.5597 9.39258 63.6662 9.39258C63.7695 9.39258 63.8696 9.38623 63.9729 9.36768C64.0761 9.34912 64.1697 9.31836 64.2666 9.27808C64.2939 9.26709 64.3219 9.26099 64.3499 9.25464C64.3848 9.24707 64.4198 9.2395 64.4538 9.22241C64.4731 9.21143 64.4885 9.19678 64.5038 9.18213C64.5191 9.16748 64.5344 9.15259 64.5538 9.14185C64.641 9.08936 64.712 9.02124 64.7862 8.94995C64.8669 8.87256 64.9411 8.79834 65.0024 8.70874C65.0131 8.69263 65.0267 8.67993 65.0405 8.66699C65.0557 8.65283 65.0712 8.63843 65.0831 8.6189C66.4419 6.27661 68.5204 4.5127 70.9282 3.65259C73.2423 2.82007 75.5952 2.94067 77.5414 3.98364C79.8491 5.21509 81.6242 7.66284 82.0664 10.2249C82.3375 11.803 82.2374 14.1331 80.2009 16.2959C79.6328 16.8994 77.4994 18.8984 74.8335 21.3677L72.4032 23.6111C69.4145 26.3618 66.1934 29.3079 63.6662 31.6099C57.9567 26.4084 48.4517 17.6946 47.1348 16.2991C45.1015 14.1392 44.9982 11.803 45.2693 10.2249C45.3425 9.80371 45.4902 9.39282 45.6374 8.98267C45.6525 8.94092 45.6675 8.89893 45.6824 8.85718L47.2543 6.14038ZM95.5058 56.303C93.3079 52.4351 87.1304 54.0378 82.1664 55.3313C80.4817 55.7708 78.8873 56.1821 77.8545 56.2659C76.6312 56.343 75.0917 56.0925 73.3069 55.7893C72.4096 55.6345 71.4543 55.4673 70.4441 55.3374C71.1767 54.335 71.1735 53.4714 71.1702 53.4436C71.2832 52.0574 70.8669 50.8477 69.9599 49.9502C68.0912 48.0935 64.8443 48.177 64.5732 48.1987L54.9487 47.8831L47.9256 46.8528C36.91 41.5894 27.8439 47.8274 25.6911 49.52L19.7137 48.8145L19.6847 45.9863C19.6782 45.3643 19.1909 44.8413 18.5454 44.7671L1.44271 42.8301C1.07799 42.7837 0.710056 42.8982 0.432489 43.1365C0.154921 43.3748 0 43.709 0 44.0615L0 71.7622C0 72.0903 0.135556 72.4058 0.377621 72.6379C0.619686 72.8669 0.948894 73 1.29101 73L18.6551 73C19.0005 73 19.3297 72.8669 19.5717 72.6318C19.8138 72.3997 19.9494 72.0779 19.9461 71.75L19.8945 66.5886L30.3969 66.802C30.5001 66.8052 40.7572 67.127 45.818 68.8506C50.9917 70.6111 54.7098 71.459 57.7631 71.459C59.8674 71.459 61.6555 71.0566 63.3822 70.2708C64.1052 69.9429 64.6668 69.6611 65.1703 69.4136C67.5845 68.21 68.4882 67.7612 81.9373 65.3972C90.1417 63.9553 94.6602 61.9253 95.7511 59.1931C96.4224 57.522 95.5252 56.303 95.5058 56.303ZM2.58202 70.5244L2.58525 45.4509L17.1124 47.1003L17.2382 59.5117L17.2382 65.3259C17.2382 65.4312 17.2737 65.5271 17.2996 65.6262L17.348 70.5276L2.58202 70.5244ZM93.3401 58.311C93.0819 58.9578 91.4585 61.2104 81.4693 62.9651C67.6393 65.394 66.642 65.8923 63.9761 67.2197C63.4984 67.458 62.9659 67.7241 62.272 68.0398C58.7636 69.6426 54.6743 69.2466 46.6798 66.5234C41.2414 64.6731 30.91 64.3481 30.4614 64.3328L19.8687 64.1162L19.8203 59.4932L19.8203 51.321L25.9397 52.0452C26.3173 52.0884 26.7078 51.9678 26.9886 51.7139C27.3469 51.3892 35.9321 43.7554 46.938 49.1487C47.0606 49.2107 47.1929 49.2478 47.3285 49.2695L54.7066 50.3433L64.5861 50.668C65.2219 50.6587 67.2004 50.7703 68.1041 51.6707C68.3526 51.915 68.6721 52.3452 68.5947 53.3198C68.5915 53.3354 68.4849 54.3689 66.5549 55.1394C66.5355 55.1455 66.5194 55.1519 66.5 55.158C65.5253 55.5386 64.0987 55.8511 62.0041 55.9377C54.145 56.2595 48.5453 56.8352 48.4872 56.8413C48.3774 56.8538 48.2677 56.8784 48.1644 56.9124C48.1637 56.9126 48.1614 56.9136 48.1575 56.9148C47.9968 56.9709 45.1335 57.9685 42.8487 57.3643L40.3828 56.7114C39.6954 56.5317 38.9853 56.9155 38.7949 57.5747C38.6045 58.2336 39.0079 58.9175 39.6954 59.0972L42.1644 59.75C44.9918 60.4863 48.1483 59.5427 48.9197 59.2827C49.8621 59.1931 55.0649 58.7009 62.1203 58.407C64.3021 58.3174 65.9578 57.9863 67.2165 57.5376C69.2337 57.6025 71.1509 57.9304 72.8486 58.2244L72.8707 58.2283C74.8302 58.564 76.5305 58.8552 78.0675 58.7319C79.3359 58.6328 80.9593 58.209 82.841 57.7202C86.714 56.7114 92.0136 55.3345 93.3498 57.655C93.3498 57.655 93.4983 57.9182 93.3401 58.311ZM10.2635 53.4158C11.9712 53.4158 13.3555 52.0886 13.3555 50.4514C13.3555 48.8142 11.9712 47.4871 10.2635 47.4871C8.55589 47.4871 7.17157 48.8142 7.17157 50.4514C7.17157 52.0886 8.55589 53.4158 10.2635 53.4158Z" fill="#B68C6E" fill-opacity="1.000000" fill-rule="evenodd"/>
</svg>
