<svg width="25.000000" height="24.000000" viewBox="0 0 25 24" fill="none" xmlns="http://www.w3.org/2000/svg" xmlns:xlink="http://www.w3.org/1999/xlink">
	<desc>
			Created with Pixso.
	</desc>
	<defs/>
	<path d="M17.8571 24L7.14286 24C5.24845 24 3.43163 23.2876 2.09209 22.02C0.752543 20.752 0 19.0322 0 17.2393L0 6.76074C0 4.96777 0.752543 3.24805 2.09209 1.97998C3.43163 0.712402 5.24845 0 7.14286 0L17.8571 0C19.7515 0 21.5684 0.712402 22.9079 1.97998C24.2475 3.24805 25 4.96777 25 6.76074L25 17.2393C25 18.1274 24.8153 19.0063 24.4563 19.8267C24.0973 20.647 23.5712 21.3921 22.9079 22.02C22.2446 22.6475 21.4572 23.1455 20.5906 23.4854C19.724 23.8252 18.7952 24 17.8571 24ZM22.6786 6.25342C22.6786 5.13281 22.2082 4.05811 21.371 3.26562C20.5338 2.47314 19.3983 2.02832 18.2143 2.02832L6.60714 2.02832C5.42314 2.02832 4.28764 2.47314 3.45043 3.26562C2.61321 4.05811 2.14286 5.13281 2.14286 6.25342L2.14286 17.2393C2.14286 18.3599 2.61321 19.4346 3.45043 20.2271C4.28764 21.0195 5.42314 21.4648 6.60714 21.4648L18.2143 21.4648C19.3983 21.4648 20.5338 21.0195 21.371 20.2271C22.2082 19.4346 22.6786 18.3599 22.6786 17.2393L22.6786 6.25342ZM19.1071 6.92969C18.7893 6.92969 18.4786 6.84033 18.2143 6.67334C17.95 6.50586 17.744 6.26855 17.6223 5.99072C17.5007 5.7124 17.4689 5.40674 17.5309 5.11182C17.5929 4.81641 17.7459 4.54541 17.9707 4.33301C18.1955 4.12012 18.4818 3.9751 18.7936 3.9165C19.1054 3.85791 19.4285 3.88818 19.7222 4.00293C20.0158 4.11816 20.2668 4.31299 20.4434 4.56348C20.62 4.81348 20.7143 5.10742 20.7143 5.40869C20.7143 5.81201 20.545 6.19873 20.2436 6.48389C19.9422 6.76953 19.5334 6.92969 19.1071 6.92969ZM12.4107 18.0845C11.1216 18.0845 9.86144 17.7227 8.78959 17.0449C7.71773 16.3672 6.88233 15.4033 6.38901 14.2764C5.89569 13.1489 5.7666 11.9087 6.01809 10.7119C6.26958 9.51514 6.89035 8.41602 7.80188 7.55322C8.71342 6.69043 9.87479 6.10303 11.1391 5.86523C12.4035 5.62695 13.714 5.74902 14.905 6.21631C16.096 6.68311 17.1139 7.47363 17.8301 8.48828C18.5463 9.50244 18.9286 10.6953 18.9286 11.9155C18.9286 13.5518 18.2419 15.1206 17.0195 16.2778C15.7972 17.4346 14.1394 18.0845 12.4107 18.0845ZM12.4107 7.94385C11.5807 7.94385 10.7694 8.17676 10.0793 8.61279C9.3892 9.04932 8.85134 9.66992 8.53372 10.3955C8.2161 11.1211 8.133 11.9199 8.29492 12.6904C8.45684 13.4609 8.8565 14.1685 9.44338 14.7241C10.0303 15.2793 10.778 15.6577 11.592 15.811C12.4061 15.9644 13.2498 15.8857 14.0166 15.585C14.7834 15.2842 15.4388 14.7754 15.8999 14.1221C16.361 13.4688 16.6071 12.7012 16.6071 11.9155C16.6071 10.8623 16.165 9.85205 15.378 9.10693C14.5911 8.3623 13.5237 7.94385 12.4107 7.94385Z" fill="#FFFFFF" fill-opacity="1.000000" fill-rule="evenodd"/>
</svg>
