<svg width="16.820557" height="16.814941" viewBox="0 0 16.8206 16.8149" fill="none" xmlns="http://www.w3.org/2000/svg" xmlns:xlink="http://www.w3.org/1999/xlink">
	<desc>
			Created with Pixso.
	</desc>
	<defs/>
	<path id="Vector" d="M14.4067 16.0952C14.1682 16.0952 13.9578 15.9351 13.8884 15.7085C13.8218 15.4824 13.9124 15.229 14.1135 15.0957C14.6228 14.7627 15.0559 14.3228 15.385 13.8164C15.6968 13.3369 15.8035 12.9639 15.7036 12.6704C15.4995 12.0977 14.4082 11.6846 13.4807 11.3911C12.645 11.1245 11.7283 11.3374 11.1072 11.9639L10.7554 12.3105C10.6926 12.3774 10.6155 12.4307 10.53 12.457C10.2888 12.5239 8.96436 12.7637 6.51221 10.3115C6.30029 10.0986 6.29883 9.75195 6.51074 9.53857C6.72144 9.33887 7.06519 9.33887 7.27588 9.53857C8.88428 11.1514 9.82642 11.3774 10.1357 11.4043L10.3435 11.2046C11.2498 10.2852 12.5876 9.96533 13.8098 10.3652C15.0225 10.7515 16.3457 11.2446 16.7217 12.3105C16.9414 12.937 16.7937 13.6299 16.2898 14.4028C15.8782 15.0425 15.3369 15.5889 14.7014 16.0151C14.6133 16.0684 14.5107 16.0952 14.4067 16.0952ZM11.8108 16.8149C9.3374 16.8149 6.49878 15.3887 3.96411 12.8564C3.82422 12.7236 3.76685 12.5239 3.81616 12.3374C3.86694 12.1377 4.01343 11.9907 4.2041 11.9507C4.39209 11.8975 4.59326 11.9507 4.729 12.0972C7.11987 14.4829 9.86914 15.8418 12.0747 15.7354C12.2173 15.7222 12.3572 15.7754 12.4651 15.8687C12.5718 15.9619 12.6357 16.1084 12.6411 16.2417C12.657 16.5483 12.4265 16.8018 12.1279 16.8149C12.0227 16.8149 11.9175 16.8149 11.8108 16.8149Z" fill="#FFFFFF" fill-opacity="1.000000" fill-rule="nonzero"/>
	<path id="Vector" d="M4.34644 13.0171C4.20386 13.0171 4.06519 12.9639 3.96387 12.8569C1.23877 10.125 -0.232422 6.96729 0.0300293 4.39502C0.18335 2.7959 1.06421 1.36963 2.41406 0.529785C3.18433 0.0234375 3.88794 -0.122559 4.50366 0.103516C5.5686 0.477051 6.07227 1.79639 6.46021 3.00928C6.85449 4.23535 6.52808 5.56738 5.61914 6.47363L5.40723 6.68701C5.43262 6.9668 5.64307 7.91309 7.27441 9.53906C7.47827 9.75244 7.47559 10.0986 7.26758 10.2983C7.05835 10.5117 6.72119 10.5122 6.51074 10.312C4.05859 7.85986 4.2959 6.52734 4.36914 6.2876C4.39453 6.20752 4.44116 6.12744 4.50366 6.06104L4.85547 5.71436C5.47778 5.08789 5.69922 4.18213 5.42993 3.34229C5.13281 2.40967 4.71826 1.31592 4.1438 1.11621C3.86133 1.02295 3.479 1.12988 3.00708 1.43652C1.92651 2.10254 1.22144 3.23535 1.104 4.50146C0.875 6.75342 2.22754 9.59229 4.72754 12.0977C4.88086 12.2441 4.92749 12.4839 4.84351 12.6841C4.76099 12.8838 4.56372 13.0171 4.34521 13.0171L4.34644 13.0171Z" fill="#FFFFFF" fill-opacity="1.000000" fill-rule="nonzero"/>
</svg>
