<svg width="24.000000" height="24.000000" viewBox="0 0 24 24" fill="none" xmlns="http://www.w3.org/2000/svg" xmlns:xlink="http://www.w3.org/1999/xlink">
	<desc>
			Created with Pixso.
	</desc>
	<defs/>
	<path id="WhatsApp копия" d="M6.5068 9.31494C6.46544 8.76562 6.57327 8.21533 6.81904 7.72168C6.89392 7.5249 6.99799 7.34082 7.1278 7.1748C7.35949 6.86279 7.66908 6.61621 8.02584 6.45996C8.02584 6.45996 9.0862 6.35596 9.17794 6.49805C9.66933 7.34814 10.0804 8.2417 10.4059 9.16699C10.5682 9.77246 9.71606 10.4634 9.71606 10.4634C9.71606 10.4634 9.17619 10.7378 9.71606 11.4165C10.1183 11.9233 10.8029 12.8066 11.214 13.1328C11.6482 13.4868 12.1102 13.8057 12.5954 14.0864C13.5993 14.6406 13.7863 14.5815 13.7863 14.5815C13.7863 14.5815 13.9716 14.6572 14.4762 13.9717C14.7461 13.6079 15.0408 13.1807 15.3213 13.0947C15.6459 12.9956 18.2677 14.4956 18.1636 14.3911C18.347 14.5752 18.2024 15.1665 18.2024 15.1665C18.2024 15.1665 18.2589 15.8276 17.2603 16.5903C16.6022 17.0933 15.5136 17.2129 15.5136 17.2129C14.8282 17.1641 14.1545 17.0098 13.5164 16.7559C12.4525 16.3564 11.3286 16.02 9.86954 14.6973C8.85593 13.7803 7.97536 12.7271 7.2531 11.5684C6.48562 10.2495 6.5068 9.31494 6.5068 9.31494ZM12.2302 23.4663C10.1959 23.4692 8.19574 22.9453 6.4256 21.9468L0 24L2.11187 17.7485C0.779137 15.5249 0.222351 12.9243 0.528301 10.3521C0.834251 7.78027 1.98573 5.38135 3.80326 3.52979C5.62079 1.67822 8.00222 0.477539 10.5763 0.115234C13.1503 -0.24707 15.7723 0.249512 18.0335 1.52734C20.2947 2.80518 22.0679 4.79248 23.0768 7.1792C24.0858 9.56641 24.2736 12.2188 23.6112 14.7231C22.9487 17.2275 21.4731 19.4434 19.4145 21.0249C17.3558 22.6064 14.8298 23.4648 12.2302 23.4663ZM12.2108 1.99805C10.4028 1.9917 8.6281 2.48145 7.08162 3.41455C5.53514 4.34766 4.27684 5.6875 3.4451 7.28711C2.61336 8.88623 2.24038 10.6831 2.36717 12.48C2.49397 14.2769 3.11563 16.0039 4.16379 17.4717L3.22693 20.3013L3.23046 20.3042L2.95699 21.1025L4.54663 20.6323C4.54409 20.6289 4.54111 20.6265 4.5378 20.6245L6.71851 19.9404C7.9953 20.7998 9.45665 21.3486 10.9851 21.543C12.5135 21.7373 14.0663 21.5718 15.5188 21.0591C16.9712 20.5469 18.2827 19.7017 19.3478 18.5928C20.4129 17.4834 21.2019 16.1406 21.6514 14.6724C22.1009 13.2041 22.1982 11.6509 21.9357 10.1382C21.6732 8.62549 21.0581 7.19531 20.1399 5.96289C19.2216 4.72998 18.0259 3.729 16.6488 3.04053C15.2717 2.35205 13.7516 1.99512 12.2108 1.99805Z" fill="#FFFFFF" fill-opacity="1.000000" fill-rule="evenodd"/>
</svg>
